<?xml version="1.0"?>
<svg xmlns="http://www.w3.org/2000/svg" xmlns:xlink="http://www.w3.org/1999/xlink" version="1.1" id="Layer_1_1_" x="0px" y="0px" viewBox="0 0 64 64" style="enable-background:new 0 0 64 64;" xml:space="preserve" width="512px" height="512px" class=""><g><g>
	<g>
		<path d="M7,33h21v-2H7c-2.206,0-4-1.794-4-4s1.794-4,4-4s4,1.794,4,4h2c0-2.848-1.997-5.234-4.663-5.844    C8.117,20.124,8,19.067,8,18C8,9.729,14.729,3,23,3c6.192,0,11.668,3.719,13.95,9.474l1.859-0.737    c-0.611-1.54-1.429-2.945-2.406-4.203C38.093,6.531,40.006,6,42,6c5.342,0,9.916,3.916,10.831,9.084    c-2.006,0.258-3.853,1.17-5.287,2.646l1.435,1.394C50.308,17.754,52.092,17,54,17c3.86,0,7,3.14,7,7s-3.14,7-7,7v2    c4.962,0,9-4.038,9-9c0-4.679-3.59-8.532-8.16-8.957C53.886,8.785,48.417,4,42,4c-2.485,0-4.864,0.695-6.939,2.01    C31.94,2.861,27.652,1,23,1C13.626,1,6,8.626,6,18c0,1.027,0.099,2.046,0.281,3.047C3.311,21.404,1,23.935,1,27    C1,30.309,3.691,33,7,33z" data-original="#000000"/>
		<path d="M29,55H9c-1.103,0-2-0.897-2-2s0.897-2,2-2h15c2.757,0,5-2.243,5-5s-2.243-5-5-5H5c-1.103,0-2-0.897-2-2s0.897-2,2-2h9v-2    H5c-2.206,0-4,1.794-4,4s1.794,4,4,4h19c1.654,0,3,1.346,3,3s-1.346,3-3,3H9c-2.206,0-4,1.794-4,4s1.794,4,4,4h20    c1.103,0,2,0.897,2,2s-0.897,2-2,2h-5v2h5c2.206,0,4-1.794,4-4S31.206,55,29,55z" data-original="#000000"/>
		<rect x="5" y="61" width="17" height="2" data-original="#000000"/>
		<rect x="1" y="61" width="2" height="2" data-original="#000000"/>
		<rect x="16" y="35" width="9" height="2" data-original="#000000"/>
		<path d="M59,39H32v2h27c1.103,0,2,0.897,2,2s-0.897,2-2,2H46v2h13c2.206,0,4-1.794,4-4S61.206,39,59,39z" data-original="#000000"/>
		<rect x="61" y="61" width="2" height="2" data-original="#000000"/>
		<path d="M59.5,50H32v2h27.5c0.827,0,1.5,0.673,1.5,1.5S60.327,55,59.5,55H47c-2.206,0-4,1.794-4,4s1.794,4,4,4h12v-2H47    c-1.103,0-2-0.897-2-2s0.897-2,2-2h12.5c1.93,0,3.5-1.57,3.5-3.5S61.43,50,59.5,50z" data-original="#000000"/>
		<rect x="42" y="45" width="2" height="2" data-original="#000000"/>
	</g>
	<g>
		<g>
			<path style="fill:#1273EB" d="M49,37H33c-3.309,0-6-2.691-6-6s2.691-6,6-6c0.332,0,0.668,0.032,1.015,0.099     C35.417,22.583,38.073,21,41,21s5.583,1.583,6.985,4.099C48.332,25.032,48.668,25,49,25c3.309,0,6,2.691,6,6S52.309,37,49,37z" data-original="#F0BC5E" class="active-path" data-old_color="#F0BC5E"/>
		</g>
	</g>
</g></g> </svg>
