<?xml version="1.0"?>
<svg xmlns="http://www.w3.org/2000/svg" xmlns:xlink="http://www.w3.org/1999/xlink" version="1.1" id="Layer_1_1_" x="0px" y="0px" viewBox="0 0 64 64" style="enable-background:new 0 0 64 64;" xml:space="preserve" width="512px" height="512px" class=""><g><g>
	<g>
		<path style="fill:#236DC7" d="M23,29c1.639,0,3.175,0.412,4.54,1.111l0.01-0.01c1.483-5.126,5.818-9.039,11.174-9.914    C36.515,15.36,31.655,12,26,12c-7.732,0-14,6.268-14,14c0,2.917,0.894,5.624,2.42,7.866C16.167,30.952,19.355,29,23,29z" data-original="#F0BC5E" class="active-path" data-old_color="#F0BC5E"/>
	</g>
	<g>
		<path d="M55.621,37.36C55.872,36.263,56,35.137,56,34c0-8.271-6.729-15-15-15c-6.26,0-11.88,3.956-14.05,9.747    C25.706,28.265,24.37,28,23,28c-5.352,0-9.913,3.908-10.83,9.078C11.782,37.032,11.393,37,11,37C5.486,37,1,41.486,1,47    s4.486,10,10,10h8.536v-2H11c-4.411,0-8-3.589-8-8s3.589-8,8-8c1.853,0,3.591,0.614,5.028,1.777l1.258-1.555    c-0.943-0.763-2.019-1.337-3.161-1.713C14.842,33.239,18.592,30,23,30c3.429,0,6.61,1.995,8.104,5.082l1.801-0.871    c-0.928-1.916-2.388-3.485-4.148-4.568C30.583,24.52,35.505,21,41,21c7.168,0,13,5.832,13,13c0,1.028-0.124,2.044-0.36,3.032    C53.427,37.019,53.216,37,53,37c-5.514,0-10,4.486-10,10h2c0-4.411,3.589-8,8-8s8,3.589,8,8s-3.589,8-8,8h-8.539v2H53    c5.514,0,10-4.486,10-10C63,42.394,59.865,38.516,55.621,37.36z" data-original="#000000" class=""/>
		<rect x="25" y="1" width="2" height="9" data-original="#000000" class=""/>
		<rect x="17.92" y="6.408" transform="matrix(0.9239 -0.3826 0.3826 0.9239 -1.9688 7.9178)" width="2" height="5" data-original="#000000" class=""/>
		<rect x="7.908" y="16.421" transform="matrix(0.3826 -0.9239 0.9239 0.3826 -11.981 19.9109)" width="2" height="5" data-original="#000000" class=""/>
		<rect x="6.408" y="32.08" transform="matrix(0.9238 -0.3828 0.3828 0.9238 -11.9847 5.93)" width="5" height="2" data-original="#000000" class=""/>
		<rect x="30.58" y="7.908" transform="matrix(0.3828 -0.9238 0.9238 0.3828 12.1867 36.0578)" width="5" height="2" data-original="#000000" class=""/>
		<rect x="10.505" y="7.004" transform="matrix(0.7071 -0.7071 0.7071 0.7071 -4.7653 11.5044)" width="2" height="9" data-original="#000000" class=""/>
		<rect x="1" y="25" width="9" height="2" data-original="#000000" class=""/>
		<rect x="35.995" y="10.505" transform="matrix(0.7071 -0.7071 0.7071 0.7071 3.7261 32.0043)" width="9" height="2" data-original="#000000" class=""/>
	</g>
	<g>
		<path style="fill:#236DC7" d="M40,63H24c-3.309,0-6-2.691-6-6s2.691-6,6-6c0.332,0,0.668,0.032,1.015,0.099    C26.417,48.583,29.073,47,32,47s5.583,1.583,6.985,4.099C39.332,51.032,39.668,51,40,51c3.309,0,6,2.691,6,6S43.309,63,40,63z" data-original="#F0BC5E" class="active-path" data-old_color="#F0BC5E"/>
	</g>
</g></g> </svg>
