<?xml version="1.0"?>
<svg xmlns="http://www.w3.org/2000/svg" xmlns:xlink="http://www.w3.org/1999/xlink" version="1.1" id="Layer_1_1_" x="0px" y="0px" viewBox="0 0 64 64" style="enable-background:new 0 0 64 64;" xml:space="preserve" width="512px" height="512px"><g><g>
	<g>
		<rect x="33" y="45" width="17.444" height="2" data-original="#000000"/>
		<path d="M56.94,33.071C56.975,32.715,57,32.359,57,32c0-6.065-4.935-11-11-11c-0.869,0-1.716,0.122-2.538,0.317    c-0.806-1.945-2.444-3.424-4.468-4.022C38.998,17.195,39,17.097,39,17c0-4.411-3.589-8-8-8c-1.383,0-2.685,0.353-3.821,0.974    C25.155,6.89,21.739,5,18,5C11.935,5,7,9.935,7,16c0,0.359,0.025,0.715,0.06,1.071C3.644,17.533,1,20.46,1,24c0,3.859,3.14,7,7,7    h17.263C25.097,31.641,25,32.308,25,33c0,0.098,0.002,0.196,0.007,0.297C22.095,34.167,20,36.897,20,40c0,3.859,3.14,7,7,7h1.445    v-2H27c-2.757,0-5-2.243-5-5c0-2.445,1.824-4.567,4.242-4.936l0.992-0.15l-0.154-0.991C27.025,33.574,27,33.281,27,33    c0-3.309,2.691-6,6-6s6,2.691,6,6h2c0-2.31-0.99-4.388-2.561-5.849C40.089,24.58,42.909,23,46,23c4.962,0,9,4.037,9,9    c0,0.366-0.026,0.73-0.07,1.091C51.578,33.608,49,36.505,49,40h2c0-2.757,2.243-5,5-5s5,2.243,5,5s-2.243,5-5,5h-1v2h1    c3.86,0,7-3.141,7-7C63,36.46,60.356,33.533,56.94,33.071z M36.821,25.974C35.685,25.353,34.383,25,33,25    c-2.953,0-5.532,1.613-6.918,4H8c-2.757,0-5-2.243-5-5s2.243-5,5-5s5,2.243,5,5h2c0-3.495-2.578-6.392-5.93-6.909    C9.026,16.73,9,16.366,9,16c0-4.963,4.038-9,9-9c3.091,0,5.911,1.58,7.561,4.151C23.99,12.612,23,14.69,23,17h2    c0-3.309,2.691-6,6-6s6,2.691,6,6c0,0.281-0.025,0.574-0.08,0.923l-0.154,0.991l0.992,0.15c1.695,0.259,3.104,1.356,3.791,2.876    C39.637,22.786,37.998,24.18,36.821,25.974z" data-original="#000000"/>
	</g>
	<g>
		<g>
			<path style="fill:#1273EB" d="M38.5,59c-1.93,0-3.5-1.57-3.5-3.5c0-1.307,0.651-2.456,1.699-3.086L42,49.234V55.5     C42,57.43,40.43,59,38.5,59z" data-original="#F0BC5E" class="active-path" data-old_color="#F0BC5E"/>
		</g>
	</g>
	<g>
		<g>
			<path style="fill:#1273EB" d="M4.5,42C2.57,42,1,40.43,1,38.5c0-1.307,0.651-2.456,1.699-3.086L8,32.234V38.5     C8,40.43,6.43,42,4.5,42z" data-original="#F0BC5E" class="active-path" data-old_color="#F0BC5E"/>
		</g>
	</g>
	<g>
		<g>
			<path style="fill:#1273EB" d="M12.5,54C10.57,54,9,52.43,9,50.5c0-1.307,0.651-2.456,1.699-3.086L16,44.234V50.5     C16,52.43,14.43,54,12.5,54z" data-original="#F0BC5E" class="active-path" data-old_color="#F0BC5E"/>
		</g>
	</g>
	<g>
		<g>
			<path style="fill:#1273EB" d="M30.5,51c-1.93,0-3.5-1.57-3.5-3.5c0-1.307,0.651-2.456,1.699-3.086L34,41.234V47.5     C34,49.43,32.43,51,30.5,51z" data-original="#F0BC5E" class="active-path" data-old_color="#F0BC5E"/>
		</g>
	</g>
	<g>
		<g>
			<path style="fill:#1273EB" d="M52.5,51c-1.93,0-3.5-1.57-3.5-3.5c0-1.307,0.651-2.456,1.699-3.086L56,41.234V47.5     C56,49.43,54.43,51,52.5,51z" data-original="#F0BC5E" class="active-path" data-old_color="#F0BC5E"/>
		</g>
	</g>
</g></g> </svg>
