<?xml version="1.0"?>
<svg xmlns="http://www.w3.org/2000/svg" xmlns:xlink="http://www.w3.org/1999/xlink" version="1.1" id="Layer_1_1_" x="0px" y="0px" viewBox="0 0 64 64" style="enable-background:new 0 0 64 64;" xml:space="preserve" width="512px" height="512px"><g><g>
	<g>
		<path d="M57,41c-0.439,0-0.874,0.052-1.298,0.147c-0.747-2.311-2.844-3.955-5.324-4.112C50.773,36.079,51,35.06,51,34    c0-4.411-3.589-8-8-8c-0.067,0-0.132,0.013-0.199,0.015C41.877,21.449,37.834,18,33,18c-1.931,0-3.813,0.57-5.422,1.608    C25.688,16.266,22.106,14,18,14c-6.065,0-11,4.935-11,11c0,0.416,0.038,0.828,0.085,1.239C3.554,27.103,1,30.272,1,34    c0,4.411,3.589,8,8,8h23.69c-1.62,1.076-2.69,2.914-2.69,5c0,3.309,2.691,6,6,6h21c3.309,0,6-2.691,6-6S60.309,41,57,41z M3,34    c0-2.77,1.884-5.116,4.492-5.79c0.267,0.875,0.63,1.722,1.111,2.509l1.707-1.041C9.453,28.272,9,26.655,9,25c0-4.962,4.037-9,9-9    s9,4.038,9,9h2c0-1.242-0.217-2.432-0.598-3.547C29.743,20.512,31.351,20,33,20c4.411,0,8,3.589,8,8    c0,0.931-0.158,1.844-0.472,2.713l1.883,0.677C42.802,30.303,43,29.162,43,28c3.309,0,6,2.691,6,6c0,1.222-0.375,2.38-1.061,3.379    c-0.171,0.063-0.338,0.135-0.503,0.213C46.116,35.955,44.146,35,42,35c-3.164,0-5.842,2.112-6.705,5H9C5.691,40,3,37.309,3,34z     M57,51H36c-2.206,0-4-1.794-4-4s1.794-4,4-4s4,1.794,4,4h2c0-2.936-2.12-5.381-4.909-5.896C37.515,38.775,39.55,37,42,37    c1.48,0,2.839,0.642,3.781,1.738c-0.364,0.359-0.685,0.765-0.951,1.214l1.723,1.018C47.271,39.755,48.591,39,50,39    c1.817,0,3.364,1.215,3.841,2.91c-0.44,0.272-0.85,0.596-1.21,0.977l1.455,1.371C54.852,43.447,55.886,43,57,43    c2.206,0,4,1.794,4,4S59.206,51,57,51z" data-original="#000000"/>
		<path d="M7,9c0-1.654,1.346-3,3-3c0.083,0,0.163,0.012,0.283,0.027l0.744,0.09l0.295-0.689C11.954,3.953,13.397,3,15,3V1    c-2.165,0-4.136,1.159-5.198,3.004C7.476,4.095,5.553,5.783,5.101,8H1v2h6V9z" data-original="#000000"/>
		<path d="M58.899,28c-0.452-2.217-2.375-3.905-4.701-3.996C53.136,22.159,51.165,21,49,21v2c1.603,0,3.046,0.953,3.678,2.428    l0.333,0.686l0.745-0.092C53.837,26.012,53.917,26,54,26c1.654,0,3,1.346,3,3v1h6v-2H58.899z" data-original="#000000"/>
	</g>
	<g>
		<g>
			<path style="fill:#1273EB" d="M23,63H7c-3.309,0-6-2.691-6-6s2.691-6,6-6c0.332,0,0.668,0.032,1.015,0.099     C9.417,48.583,12.073,47,15,47s5.583,1.583,6.985,4.099C22.332,51.032,22.668,51,23,51c3.309,0,6,2.691,6,6S26.309,63,23,63z" data-original="#F0BC5E" class="active-path" data-old_color="#F0BC5E"/>
		</g>
	</g>
	<g>
		<g>
			<path style="fill:#1273EB" d="M57,17H41c-3.309,0-6-2.691-6-6s2.691-6,6-6c0.332,0,0.668,0.032,1.015,0.099     C43.417,2.583,46.073,1,49,1s5.583,1.583,6.985,4.099C56.332,5.032,56.668,5,57,5c3.309,0,6,2.691,6,6S60.309,17,57,17z" data-original="#F0BC5E" class="active-path" data-old_color="#F0BC5E"/>
		</g>
	</g>
</g></g> </svg>
