<?xml version="1.0" encoding="iso-8859-1"?>
<!-- Generator: Adobe Illustrator 22.1.0, SVG Export Plug-In . SVG Version: 6.00 Build 0)  -->
<svg xmlns="http://www.w3.org/2000/svg" xmlns:xlink="http://www.w3.org/1999/xlink" version="1.1" id="Layer_1_1_" x="0px" y="0px" viewBox="0 0 64 64" style="enable-background:new 0 0 64 64;" xml:space="preserve" width="512" height="512">
<g>
	<g>
		<path style="fill:#F0BC5E;" d="M60.178,27.971C61.565,27.195,63,26.395,63,25s-1.435-2.195-2.822-2.971    c-0.597-0.333-1.595-0.89-1.719-1.167c-0.055-0.33,0.581-1.398,0.922-1.972c0.796-1.339,1.619-2.723,0.94-3.895    c-0.686-1.186-2.313-1.165-3.88-1.14c-0.655,0.013-1.873,0.027-2.122-0.164c-0.203-0.26-0.186-1.479-0.176-2.134    c0.022-1.57,0.045-3.194-1.14-3.88c-1.175-0.68-2.556,0.145-3.893,0.94c-0.574,0.341-1.637,0.996-1.956,0.927    c-0.295-0.129-0.852-1.127-1.185-1.724C45.195,6.435,44.395,5,43,5s-2.195,1.435-2.971,2.822c-0.333,0.597-0.89,1.595-1.167,1.719    c-0.314,0.056-1.397-0.58-1.972-0.922c-1.339-0.796-2.721-1.618-3.895-0.94c-1.185,0.686-1.162,2.31-1.14,3.88    c0.01,0.655,0.027,1.874-0.164,2.122c-0.26,0.203-1.481,0.188-2.134,0.176c-1.566-0.019-3.195-0.045-3.88,1.14    c-0.678,1.172,0.145,2.555,0.94,3.893c0.341,0.574,0.977,1.643,0.927,1.956c-0.129,0.295-1.127,0.852-1.724,1.185    C24.435,22.805,23,23.605,23,25s1.435,2.195,2.822,2.971c0.597,0.333,1.595,0.89,1.719,1.168c0.055,0.33-0.581,1.399-0.924,1.974    c-0.085,0.144-0.169,0.287-0.253,0.43c1.384,1.083,2.529,2.458,3.332,4.039c1.509-1.482,3.54-2.428,5.79-2.555l-0.017-0.007    C33.334,31.012,32,28.162,32,25c0-6.075,4.925-11,11-11s11,4.925,11,11s-4.925,11-11,11c-0.098,0-0.195-0.001-0.292-0.004    l-0.027-0.011C44.118,37.58,45,39.684,45,42c0,0.153-0.014,0.302-0.021,0.453c0.297-0.028,0.575-0.044,0.88-0.077l0.109-0.195    c0.334-0.598,0.893-1.598,1.17-1.722c0.327-0.043,1.397,0.58,1.972,0.922c0.99,0.589,2.006,1.192,2.94,1.192    c0.329,0,0.648-0.075,0.954-0.252c1.185-0.686,1.162-2.31,1.14-3.88c-0.01-0.655-0.027-1.874,0.164-2.122    c0.26-0.203,1.478-0.188,2.134-0.176c1.569,0.022,3.195,0.046,3.88-1.14c0.678-1.172-0.145-2.555-0.94-3.893    c-0.341-0.574-0.977-1.643-0.927-1.956C58.583,28.86,59.581,28.304,60.178,27.971z"/>
	</g>
	<path d="M45.938,43.06C45.976,42.709,46,42.356,46,42c0-1.871-0.526-3.617-1.424-5.116C50.449,36.108,55,31.082,55,25   c0-6.617-5.383-12-12-12s-12,5.383-12,12c0,2.655,0.906,5.23,2.509,7.315c-1.28,0.328-2.483,0.906-3.545,1.715   C27.587,30.281,23.492,28,19,28c-7.168,0-13,5.832-13,13c0,0.843,0.084,1.68,0.243,2.5C3.189,44.627,1,47.559,1,51   c0,4.411,3.589,8,8,8h36c4.411,0,8-3.589,8-8C53,46.907,49.908,43.527,45.938,43.06z M33,25c0-5.514,4.486-10,10-10s10,4.486,10,10   c0,5.472-4.42,9.927-9.876,9.994C41.308,33.148,38.787,32,36,32c-0.04,0-0.079,0.004-0.119,0.005C34.027,30.125,33,27.658,33,25z    M45,57H9c-3.309,0-6-2.691-6-6s2.691-6,6-6s6,2.691,6,6h2c0-4.411-3.589-8-8-8c-0.266,0-0.528,0.014-0.787,0.04   C8.087,42.368,8,41.689,8,41c0-6.065,4.935-11,11-11c4.158,0,7.916,2.312,9.805,6.034l0.618,1.217l0.974-0.956   C31.904,34.814,33.894,34,36,34c4.411,0,8,3.589,8,8c0,1.972-0.724,3.866-2.037,5.333l1.49,1.334   c0.951-1.062,1.645-2.306,2.069-3.641C48.587,45.292,51,47.868,51,51C51,54.309,48.309,57,45,57z"/>
</g>
</svg>
