<?xml version="1.0" encoding="iso-8859-1"?>
<!-- Generator: Adobe Illustrator 22.1.0, SVG Export Plug-In . SVG Version: 6.00 Build 0)  -->
<svg xmlns="http://www.w3.org/2000/svg" xmlns:xlink="http://www.w3.org/1999/xlink" version="1.1" id="Layer_1_1_" x="0px" y="0px" viewBox="0 0 64 64" style="enable-background:new 0 0 64 64;" xml:space="preserve" width="512" height="512">
<g>
	<g>
		<g>
			<path style="fill:#F0BC5E;" d="M32,62.786L26.221,47.76l-1.278-0.529l-14.711,6.538l6.538-14.711l-0.529-1.278L1.214,32     l15.026-5.779l0.529-1.278l-6.538-14.711l14.711,6.538l1.278-0.529L32,1.214l5.779,15.026l1.278,0.529l14.711-6.538L47.23,24.942     l0.529,1.278L62.786,32L47.76,37.779l-0.529,1.278l6.538,14.711L39.058,47.23l-1.278,0.529L32,62.786z"/>
		</g>
	</g>
	<g>
		<path d="M30.166,21.152C30.766,21.051,31.383,21,32,21v-2c-0.728,0-1.456,0.061-2.166,0.18L30.166,21.152z"/>
		<path d="M19,32h2c0-4.655,2.947-8.824,7.333-10.375l-0.667-1.885C22.483,21.572,19,26.499,19,32z"/>
		<rect x="20.285" y="5.131" transform="matrix(0.924 -0.3824 0.3824 0.924 -0.7268 8.6061)" width="2" height="2.001"/>
		<rect x="5.131" y="20.285" transform="matrix(0.3828 -0.9238 0.9238 0.3828 -15.8796 18.8012)" width="2" height="2"/>
		<rect x="5.131" y="41.715" transform="matrix(0.9238 -0.3828 0.3828 0.9238 -15.8847 5.6009)" width="2" height="2"/>
		<rect x="20.285" y="56.869" transform="matrix(0.3828 -0.9238 0.9238 0.3828 -40.3238 55.3794)" width="2.001" height="2"/>
		<rect x="41.715" y="56.868" transform="matrix(0.924 -0.3824 0.3824 0.924 -18.8837 20.7345)" width="2" height="2.001"/>
		<rect x="56.869" y="41.715" transform="matrix(0.3828 -0.9238 0.9238 0.3828 -3.7452 79.8237)" width="2" height="2"/>
		<path d="M46.068,22.469c-1.212-1.784-2.754-3.326-4.538-4.538L41.378,9.36l-6.17,5.953C34.168,15.114,33.097,15,32,15    s-2.168,0.114-3.208,0.313l-6.17-5.953l-0.153,8.571c-1.784,1.212-3.326,2.754-4.538,4.538l-8.572,0.153l5.954,6.169    C15.114,29.832,15,30.902,15,32s0.114,2.168,0.313,3.209l-5.954,6.169l8.572,0.153c1.212,1.784,2.754,3.326,4.538,4.538    l0.153,8.571l6.17-5.953C29.832,48.886,30.903,49,32,49s2.168-0.114,3.208-0.313l6.17,5.953l0.153-8.571    c1.784-1.212,3.326-2.754,4.538-4.538l8.572-0.153l-5.954-6.169C48.886,34.168,49,33.098,49,32s-0.114-2.168-0.313-3.209    l5.954-6.169L46.068,22.469z M39.46,13.989l0.05,2.782c-0.66-0.327-1.342-0.614-2.047-0.855L39.46,13.989z M24.54,13.989    l1.997,1.928c-0.705,0.24-1.387,0.528-2.047,0.855L24.54,13.989z M13.99,24.54l2.781-0.05c-0.327,0.66-0.614,1.341-0.854,2.046    L13.99,24.54z M13.99,39.46l1.927-1.997c0.24,0.705,0.527,1.386,0.854,2.046L13.99,39.46z M24.54,50.011l-0.05-2.782    c0.66,0.327,1.342,0.614,2.047,0.855L24.54,50.011z M39.46,50.011l-1.997-1.928c0.705-0.24,1.387-0.528,2.047-0.855L39.46,50.011z     M32,47c-8.271,0-15-6.729-15-15s6.729-15,15-15s15,6.729,15,15S40.271,47,32,47z M50.01,39.46l-2.781,0.05    c0.327-0.66,0.614-1.341,0.854-2.046L50.01,39.46z M47.228,24.49l2.781,0.05l-1.927,1.997    C47.843,25.832,47.555,25.151,47.228,24.49z"/>
		<rect x="56.869" y="20.285" transform="matrix(0.9238 -0.3828 0.3828 0.9238 -3.7401 23.7742)" width="2" height="2"/>
		<rect x="41.715" y="5.131" transform="matrix(0.3828 -0.9238 0.9238 0.3828 20.6989 43.2455)" width="2.001" height="2"/>
	</g>
</g>
</svg>
