<?xml version="1.0" encoding="iso-8859-1"?>
<!-- Generator: Adobe Illustrator 22.1.0, SVG Export Plug-In . SVG Version: 6.00 Build 0)  -->
<svg xmlns="http://www.w3.org/2000/svg" xmlns:xlink="http://www.w3.org/1999/xlink" version="1.1" id="Layer_1_1_" x="0px" y="0px" viewBox="0 0 64 64" style="enable-background:new 0 0 64 64;" xml:space="preserve" width="512" height="512">
<g>
	<g>
		<g>
			<path style="fill:#F0BC5E;" d="M16,63h-5c-3.859,0-7-3.141-7-7v-3h5c3.859,0,7,3.141,7,7V63z"/>
		</g>
	</g>
	<g>
		<g>
			<path style="fill:#F0BC5E;" d="M56,13h-3V8c0-3.859,3.141-7,7-7h3v5C63,9.859,59.859,13,56,13z"/>
		</g>
	</g>
	<g>
		<g>
			<path style="fill:#F0BC5E;" d="M9,11H4V8c0-3.859,3.141-7,7-7h5v3C16,7.859,12.859,11,9,11z"/>
		</g>
	</g>
	<g>
		<path d="M2.929,48.628l-1.857,0.743c1.384,3.459,3.754,6.38,6.855,8.448l1.519,1.013l1.109-1.664l-1.519-1.013    C6.273,54.313,4.161,51.711,2.929,48.628z"/>
		<path d="M57.819,9.074l1.013-1.519l-1.664-1.109l-1.013,1.519c-1.842,2.763-4.444,4.875-7.527,6.107l0.743,1.857    C52.831,14.545,55.752,12.174,57.819,9.074z"/>
		<path d="M9.036,7.845l1.519-1.013L9.445,5.168L7.926,6.181c-3.101,2.067-5.471,4.988-6.855,8.448l1.857,0.743    C4.161,12.289,6.273,9.687,9.036,7.845z"/>
		<path d="M27.923,26.93l0.153,1.994c3.705-0.285,6.32-1.371,7.774-3.227c1.281-1.636,1.195-3.332,1.148-3.761    C36.965,19.208,34.736,17,32,17c-1.654,0-3,1.346-3,3s1.346,3,3,3h1v-2h-1c-0.551,0-1-0.449-1-1s0.449-1,1-1c1.654,0,3,1.346,3,3    l0.012,0.153c0.007,0.048,0.157,1.2-0.765,2.348C33.159,25.855,30.972,26.695,27.923,26.93z"/>
		<path d="M10.873,37.487c0.045-0.08,4.578-7.978,14.178-8.464l-0.102-1.997c-10.734,0.543-15.621,9.123-15.823,9.488L10.873,37.487    z"/>
		<path d="M52.769,21C47.934,21,44,24.934,44,29.769V30.5c0,3.033,2.467,5.5,5.5,5.5s5.5-2.467,5.5-5.5h-2c0,1.93-1.57,3.5-3.5,3.5    S46,32.43,46,30.5v-0.731C46,26.037,49.037,23,52.77,23c4.538,0,8.23,3.692,8.23,8.231c0,1.467-0.379,2.889-1.097,4.111    C58.655,37.467,56.271,40,52,40c-3.471,0-6.522-0.772-10.056-1.667c-1.502-0.38-3.057-0.774-4.737-1.129l-0.414,1.957    c1.642,0.347,3.176,0.735,4.66,1.111C44.964,41.16,48.28,42,52,42c5.216,0,8.115-3.07,9.627-5.645    C62.525,34.826,63,33.054,63,31.23C63,25.589,58.411,21,52.769,21z"/>
		<path d="M31.883,38.342l0.234-1.986C30.089,36.116,28.088,36,26,36C13.568,36,6.434,47.986,6.136,48.496l1.727,1.008    C7.931,49.39,14.731,38,26,38C28.009,38,29.934,38.112,31.883,38.342z"/>
		<path d="M48,45c-2.757,0-5,2.243-5,5h2c0-1.654,1.346-3,3-3s3,1.346,3,3c0,0.204-0.068,5-6,5c-4.323,0-6.13-1.553-12.116-6.7    l-1.233-1.059c-7.388-6.332-14.735-3.292-15.045-3.16l0.785,1.839c0.265-0.111,6.546-2.658,12.958,2.839l1.231,1.057    C37.66,55.044,39.936,57,45,57c7.909,0,8-6.93,8-7C53,47.243,50.757,45,48,45z"/>
		<rect x="44" y="15" width="2" height="2"/>
		<rect x="7" y="39" width="2" height="2"/>
		<rect x="54" y="59" width="2" height="2"/>
		<rect x="59" y="43" width="2" height="2"/>
		<rect x="15" y="17" width="2" height="2"/>
		<rect x="31" y="1" width="2" height="2"/>
		<rect x="1" y="28" width="2" height="2"/>
	</g>
</g>
</svg>
