<?xml version="1.0"?>
<svg xmlns="http://www.w3.org/2000/svg" xmlns:xlink="http://www.w3.org/1999/xlink" version="1.1" id="Layer_1_1_" x="0px" y="0px" viewBox="0 0 64 64" style="enable-background:new 0 0 64 64;" xml:space="preserve" width="512px" height="512px" class=""><g><g>
	<g>
		<path d="M53,19c-0.393,0-0.782,0.032-1.17,0.078C50.913,13.908,46.352,10,41,10c-1.37,0-2.706,0.265-3.95,0.748    C34.881,4.957,29.26,1,23,1C14.729,1,8,7.729,8,16c0,1.137,0.128,2.263,0.379,3.36C4.134,20.516,1,24.394,1,29    c0,5.514,4.486,10,10,10v3h2v-3h11v3h2v-3h12v3h2v-3h11v3h2v-3c5.514,0,10-4.486,10-10C63,23.486,58.514,19,53,19z M53,37v-3h-2v3    H40v-3h-2v3H26v-3h-2v3H13v-3h-2v3c-4.411,0-8-3.589-8-8s3.589-8,8-8s8,3.589,8,8h2c0-5.514-4.486-10-10-10    c-0.216,0-0.427,0.019-0.64,0.032C10.124,18.044,10,17.028,10,16c0-7.168,5.832-13,13-13c5.495,0,10.417,3.52,12.243,8.643    c-1.76,1.083-3.22,2.651-4.147,4.567l1.8,0.872C34.391,13.995,37.572,12,41,12c4.408,0,8.159,3.239,8.874,7.51    c-1.142,0.376-2.217,0.95-3.16,1.713l1.258,1.555C49.409,21.614,51.147,21,53,21c4.411,0,8,3.589,8,8S57.411,37,53,37z" data-original="#000000"/>
		<rect x="24" y="26" width="2" height="5" data-original="#000000"/>
		<rect x="38" y="26" width="2" height="5" data-original="#000000"/>
		<rect x="31" y="41" width="2" height="7" data-original="#000000"/>
	</g>
	<g>
		<g>
			<path style="fill:#1273EB" d="M32,63c-2.206,0-4-1.794-4-4v-0.292c0-0.617,0.146-1.235,0.422-1.788L32,49.765l3.578,7.154     C35.854,57.473,36,58.091,36,58.708V59C36,61.206,34.206,63,32,63z" data-original="#F0BC5E" class="active-path" data-old_color="#F0BC5E"/>
		</g>
	</g>
	<g>
		<g>
			<path style="fill:#1273EB" d="M46,54c-2.206,0-4-1.794-4-4v-0.292c0-0.617,0.146-1.235,0.422-1.788L46,40.765l3.578,7.154     C49.854,48.473,50,49.091,50,49.708V50C50,52.206,48.206,54,46,54z" data-original="#F0BC5E" class="active-path" data-old_color="#F0BC5E"/>
		</g>
	</g>
	<g>
		<g>
			<path style="fill:#1273EB" d="M18,54c-2.206,0-4-1.794-4-4v-0.292c0-0.617,0.146-1.235,0.422-1.788L18,40.765l3.578,7.154     C21.854,48.473,22,49.091,22,49.708V50C22,52.206,20.206,54,18,54z" data-original="#F0BC5E" class="active-path" data-old_color="#F0BC5E"/>
		</g>
	</g>
</g></g> </svg>
